<?xml version="1.0" encoding="UTF-8"?>
<svg width="80" height="80" viewBox="0 0 80 80" fill="none" xmlns="http://www.w3.org/2000/svg">
  <!-- DNA Helix Structure -->
  <path d="M30 10C30 10 50 25 50 40C50 55 30 70 30 70" stroke="#4A90E2" stroke-width="4" stroke-linecap="round"/>
  <path d="M50 10C50 10 30 25 30 40C30 55 50 70 50 70" stroke="#FF6B6B" stroke-width="4" stroke-linecap="round"/>
  
  <!-- Connection Points -->
  <circle cx="30" cy="20" r="3" fill="#4A90E2"/>
  <circle cx="50" cy="20" r="3" fill="#FF6B6B"/>
  <circle cx="30" cy="40" r="3" fill="#4A90E2"/>
  <circle cx="50" cy="40" r="3" fill="#FF6B6B"/>
  <circle cx="30" cy="60" r="3" fill="#4A90E2"/>
  <circle cx="50" cy="60" r="3" fill="#FF6B6B"/>
  
  <!-- Connecting Lines -->
  <line x1="32" y1="20" x2="48" y2="20" stroke="#495057" stroke-width="2"/>
  <line x1="32" y1="40" x2="48" y2="40" stroke="#495057" stroke-width="2"/>
  <line x1="32" y1="60" x2="48" y2="60" stroke="#495057" stroke-width="2"/>
</svg> 